<svg width="200" height="200" viewBox="0 0 200 200" fill="none" xmlns="http://www.w3.org/2000/svg">
<g clip-path="url(#clip0_1674_293)">
<rect width="200" height="200" fill="black"/>
<path d="M18.7496 33.5412C18.7215 31.591 19.0849 29.6549 19.8183 27.8477C20.5517 26.0404 21.6402 24.3986 23.0194 23.0194C24.3986 21.6402 26.0404 20.5517 27.8477 19.8183C29.6549 19.0849 31.591 18.7215 33.5412 18.7496L95.9412 19.5412C101.93 19.6137 107.652 22.0276 111.883 26.2662L172.708 87.0829C176.233 90.6079 179.358 95.6996 180.641 101.141C181.941 106.675 181.441 113.441 176.233 118.641L118.65 176.233C113.441 181.441 106.675 181.941 101.141 180.641C95.8277 179.307 90.9715 176.567 87.0829 172.708L26.2662 111.883C22.0351 107.647 19.6225 101.928 19.5412 95.9412L18.7496 33.5412ZM65.3496 52.6246C64.1648 51.5206 62.5977 50.9195 60.9785 50.9481C59.3594 50.9767 57.8145 51.6326 56.6694 52.7777C55.5243 53.9228 54.8683 55.4677 54.8398 57.0869C54.8112 58.706 55.4122 60.2731 56.5162 61.4579L62.4079 67.3579C63.5872 68.4958 65.1663 69.1251 66.805 69.1101C68.4437 69.0951 70.011 68.437 71.1692 67.2777C72.3275 66.1183 72.9841 64.5504 72.9975 62.9117C73.011 61.2729 72.3803 59.6944 71.2412 58.5162L65.3496 52.6246Z" fill="white"/>
<path d="M98.0427 45.7703H113.785L113.202 70.6949H98.6258L98.0427 45.7703ZM98.6258 156.692H113.202L113.785 181.325H98.0427L98.6258 156.692ZM125.008 92.5585C123.55 89.7405 121.898 87.214 120.052 84.9791C118.303 82.7442 116.262 80.9951 113.93 79.7318C111.695 78.3714 109.072 77.6912 106.059 77.6912C103.047 77.6912 100.569 78.1771 98.6258 79.1488C96.6823 80.0233 95.2247 81.238 94.253 82.7927C93.3785 84.3475 92.9412 86.2423 92.9412 88.4773C92.9412 91.5868 94.0101 94.1132 96.1479 96.0567C98.3828 98.0001 101.298 99.7006 104.893 101.158C108.489 102.519 112.327 103.976 116.408 105.531C119.615 106.697 122.724 108.155 125.737 109.904C128.846 111.653 131.664 113.742 134.191 116.171C136.717 118.601 138.709 121.516 140.167 124.917C141.624 128.221 142.353 132.156 142.353 136.723C142.353 142.845 140.847 148.141 137.835 152.611C134.919 157.081 130.741 160.53 125.299 162.959C119.858 165.292 113.347 166.458 105.768 166.458C99.7432 166.458 94.1073 165.292 88.86 162.959C83.6127 160.53 78.9971 157.323 75.013 153.339C71.029 149.355 67.9681 144.885 65.8303 139.93L81.1348 129.581C83.3698 133.856 85.7019 137.452 88.1312 140.367C90.5605 143.282 93.2813 145.517 96.2936 147.072C99.306 148.529 102.707 149.258 106.497 149.258C109.606 149.258 112.181 148.821 114.222 147.946C116.36 146.975 117.914 145.614 118.886 143.865C119.955 142.019 120.489 139.784 120.489 137.16C120.489 133.954 119.469 131.33 117.428 129.289C115.388 127.152 112.716 125.305 109.412 123.751C106.108 122.196 102.464 120.69 98.48 119.232C95.9535 118.358 93.1356 117.143 90.0261 115.588C86.9166 114.033 83.9528 112.041 81.1348 109.612C78.3169 107.183 75.9847 104.219 74.1385 100.721C72.3894 97.2227 71.5148 93.0444 71.5148 88.1858C71.5148 83.3272 72.9724 78.9059 75.8876 74.9218C78.8027 70.8406 82.8354 67.5854 87.9855 65.1561C93.1356 62.7268 98.9659 61.5121 105.476 61.5121C112.084 61.5121 117.671 62.581 122.238 64.7188C126.806 66.7594 130.595 69.4316 133.608 72.7355C136.717 76.0393 139.146 79.4889 140.895 83.0842L125.008 92.5585Z" fill="black"/>
</g>
<defs>
<clipPath id="clip0_1674_293">
<rect width="200" height="200" fill="white"/>
</clipPath>
</defs>
</svg>
